<svg xmlns="http://www.w3.org/2000/svg" xmlns:xlink="http://www.w3.org/1999/xlink" preserveAspectRatio="xMidYMid meet" version="1.0" viewBox="-0.6 0.0 346.3 331.2" zoomAndPan="magnify" style="fill: rgb(0, 0, 0);" original_string_length="4125"><g id="__id108_sds9ak2rea"><path d="M19.6,108.3l33.9,27.2c1.4,1.4,3.3,2.1,5.3,2.2c2,0,3.9-0.8,5.3-2.2c2.5-2.7,3.3-8,0-10.6L30.2,97.6 c-1.4-1.4-3.3-2.1-5.3-2.2c-2,0-3.9,0.8-5.3,2.2C17.1,100.4,16.3,105.6,19.6,108.3z M154,156.1l-9.5,51.1c-0.5,2-0.2,4,0.8,5.8 c1,1.7,2.6,2.9,4.5,3.4c3.7,0.8,8.5-1.1,9.2-5.2l9.5-51.1c0.5-2,0.2-4-0.8-5.8c-1-1.7-2.6-2.9-4.5-3.4 C159.6,150.1,154.8,152,154,156.1L154,156.1z M272.9,101.2c10.9-6.3,22.1-12.2,33.4-17.7c3.5-1.7,4.8-7,2.7-10.3 c-2.3-3.6-6.5-4.5-10.3-2.7c-11.3,5.5-22.5,11.4-33.4,17.7c-3.4,2-4.9,6.9-2.7,10.3C264.8,102,269.3,103.2,272.9,101.2L272.9,101.2z" style="fill: rgb(244, 195, 228);"/></g><g id="__id109_sds9ak2rea"><path d="M239.2,127.4l11,33.4c1.2,3.7,5.2,6.5,9.2,5.2c3.7-1.2,6.6-5.2,5.2-9.2l-11-33.4c-1.2-3.7-5.2-6.5-9.2-5.2 C240.8,119.4,237.9,123.4,239.2,127.4z M76.3,7.5c-0.4,14.1-0.3,28.2,0.3,42.3c0.2,3.9,3.3,7.7,7.5,7.5c3.9-0.2,7.7-3.3,7.5-7.5 C91,35.7,90.9,21.6,91.3,7.5C91.3,3.4,88,0,83.8,0C79.7,0.1,76.4,3.4,76.3,7.5z M98.3,237.3l21.1,31.2c2.2,3.2,6.7,5,10.3,2.7 c3.2-2.1,5-6.8,2.7-10.3l-21.1-31.2c-2.2-3.2-6.7-5-10.3-2.7C97.8,229.1,96,233.8,98.3,237.3z" style="fill: rgb(255, 160, 133);"/></g><g id="__id110_sds9ak2rea"><path d="M121,125.6c15.2,0.6,30.3-3.2,43.4-10.9c3.9-2.3,7.6-4.9,11-7.8c1.4-1.4,2.2-3.3,2.2-5.3 c0-4.1-3.4-7.5-7.5-7.5c-2,0.1-3.8,0.9-5.3,2.2c-0.3,0.3-0.6,0.5-1,0.8s-1.6,1.3-0.5,0.4s-0.2,0.1-0.4,0.3s-0.7,0.5-1,0.7 c-1.4,1-2.9,1.9-4.3,2.8c-3,1.8-6,3.4-9.2,4.7l1.8-0.8c-6,2.5-12.3,4.2-18.7,5.1l2-0.3c-4.1,0.5-8.3,0.7-12.4,0.5 c-4.1,0-7.5,3.4-7.5,7.5C113.6,122.2,116.9,125.5,121,125.6L121,125.6z M207.3,223.3c1.1-1.4,2.2-2.7,3.5-3.9c0.5-0.5,1.1-1,1.6-1.5 c0.4-0.3,0.8-0.6,1.1-1c1-0.8-1.5,1.1-0.3,0.2c2.7-2,5.6-3.7,8.7-5l-1.8,0.8c3.5-1.5,7.1-2.5,10.8-3l-2,0.3c3.5-0.4,7-0.4,10.4,0 l-2-0.3c0.6,0.1,1.2,0.2,1.8,0.3c2,0.5,4,0.2,5.8-0.8c1.7-1,2.9-2.6,3.5-4.5c0.8-3.7-1.1-8.5-5.2-9.2c-8.6-1.6-17.5-0.9-25.7,2.2 c-8.1,3.1-15.5,8-20.9,14.8c-1.3,1.4-2.1,3.3-2.2,5.3c0,2,0.8,3.9,2.2,5.3c1.4,1.4,3.3,2.2,5.3,2.2 C203.8,225.4,206.1,224.8,207.3,223.3L207.3,223.3z M0.1,208c1.6,11.1,2.7,22.2,3.2,33.4c0.1,1.8,1.7,3.9,3.1,4.8 c3.4,2.3,8.1,1.5,10.4-1.9c1-1.7,1.4-3.7,1.2-5.6c-0.5-11.2-1.6-22.3-3.2-33.4c-0.8-4.1-4.7-6.7-8.7-6C2.1,200.1-0.6,203.9,0.1,208z M231,301c14.5,6.6,30,10.5,45.9,11.6c3.9,0.3,7.7-3.6,7.5-7.5c-0.1-4.1-3.4-7.4-7.5-7.5c-2.6-0.2-5.2-0.4-7.8-0.8l2,0.3 c-10.8-1.5-21.3-4.3-31.4-8.6l1.8,0.8c-1-0.4-2-0.8-2.9-1.3c-1.8-1-3.8-1.2-5.8-0.8c-1.9,0.5-3.5,1.8-4.5,3.5 C226.6,294.1,227.2,299.3,231,301L231,301z" style="fill: rgb(220, 239, 222);"/></g><g id="__id111_sds9ak2rea"><path d="M185.2,258.1l-22.1,40.7c-1.9,3.5-1,8.3,2.7,10.3c3.5,1.9,8.3,1,10.3-2.7l22.1-40.7c1.9-3.5,1-8.3-2.7-10.3 C192,253.6,187.2,254.4,185.2,258.1z M304.8,269.4l-5.1-46.7c-0.1-2-0.8-3.9-2.2-5.3c-2.9-2.9-7.7-2.9-10.6,0 c-1.3,1.4-2.4,3.4-2.2,5.3l5.1,46.7c0.1,2,0.8,3.9,2.2,5.3c1.4,1.4,3.3,2.2,5.3,2.2c2,0,3.9-0.8,5.3-2.2 C303.8,273.3,305,271.3,304.8,269.4L304.8,269.4z M225.3,17.3c-3.9,15.9-7.6,31.8-10.8,47.8c-0.8,3.8,2,8.2,6,8.7 c4.1,0.7,7.9-2,8.7-6c3.3-16,6.9-32,10.8-47.8c0.9-3.8-2.1-8.2-6-8.7C230,10.6,226.1,13.3,225.3,17.3z" style="fill: rgb(200, 222, 248);"/></g><g id="__id112_sds9ak2rea"><path d="M62.4,219.5c13-8.7,26.6-16.4,40.8-22.9c1.7-1,2.9-2.6,3.4-4.5c0.5-2,0.2-4-0.8-5.8c-1-1.7-2.6-2.9-4.5-3.4 c-2-0.4-4-0.2-5.8,0.8c-14.2,6.5-27.8,14.2-40.8,22.9c-3.3,2.2-5,6.7-2.7,10.3C54.2,220.1,58.9,221.8,62.4,219.5L62.4,219.5z M153.9,47L126,27c-1.8-1-3.8-1.3-5.8-0.7c-4,1.1-6.3,5.2-5.2,9.2c0.6,1.8,1.8,3.4,3.5,4.5l27.9,19.9c1.8,1,3.8,1.3,5.8,0.7 c1.9-0.5,3.5-1.8,4.5-3.5c1-1.8,1.3-3.8,0.7-5.8C156.7,49.6,155.5,48,153.9,47L153.9,47z M309.4,188.7c1.7-1.7,3.5-3.5,5.3-5.2 l-1.4,1.3c8.7-8.4,18.3-15.9,28.4-22.5c3.3-2.1,4-7.5,1.6-10.5c-2.5-3.2-7.1-4-10.5-1.6c-12.8,8.3-24.5,18.1-35.1,29.1 c-1.2,1.5-1.8,3.5-1.6,5.4c0.2,2,1.2,3.9,2.8,5.1C302.3,192.5,306.4,191.8,309.4,188.7L309.4,188.7z M63.1,278.6l-10.2,42.7 c-0.9,3.8,1.6,8.3,5.6,9c4,0.9,8-1.6,9-5.6l10.2-42.7c0.9-3.8-1.6-8.3-5.6-9C68.1,272.2,64.1,274.7,63.1,278.6L63.1,278.6z" style="fill: rgb(246, 206, 43);"/></g></svg>