<svg xmlns="http://www.w3.org/2000/svg" xmlns:xlink="http://www.w3.org/1999/xlink" preserveAspectRatio="xMidYMid meet" version="1.0" viewBox="0.0 0.0 332.7 453.4" zoomAndPan="magnify" style="fill: rgb(0, 0, 0);" original_string_length="7724"><defs><clipPath id="__id132_stfv70hh4o"><path d="M 0 0 L 332.660156 0 L 332.660156 405 L 0 405 Z M 0 0"/></clipPath><clipPath id="__id133_stfv70hh4o"><path d="M 32 57 L 237 57 L 237 453.421875 L 32 453.421875 Z M 32 57"/></clipPath></defs><g><g clip-path="url(#__id132_stfv70hh4o)" id="__id134_stfv70hh4o"><path d="M 181.984375 331.707031 C 177.113281 327.273438 165.953125 328.511719 160.089844 329.203125 C 143.347656 331.171875 127.515625 339.65625 115.710938 351.558594 C 101.835938 365.550781 93.023438 383.878906 86.148438 402.109375 C 85.773438 403.101562 86.277344 403.84375 87.027344 404.164062 C 87.671875 404.660156 88.566406 404.734375 89.238281 403.90625 C 112.726562 374.949219 162.894531 383.171875 180.683594 347.835938 C 182.871094 343.488281 186.457031 335.78125 181.984375 331.707031 Z M 86.300781 373.253906 C 86.3125 373.1875 86.320312 373.125 86.324219 373.058594 C 86.324219 373.039062 86.324219 373.019531 86.324219 373 C 86.347656 372.347656 86.050781 371.710938 85.339844 371.410156 C 53.613281 351.820312 55.339844 301.265625 17.863281 288.210938 C 13.332031 286.632812 5.066406 284.1875 1.800781 289.304688 C -1.730469 294.839844 0.765625 304.996094 2.238281 310.898438 C 6.261719 327.035156 16.496094 341.453125 29.527344 351.625 C 45.195312 363.859375 64.785156 370.363281 83.914062 374.835938 C 85 375.261719 85.972656 374.484375 86.246094 373.519531 C 86.25 373.5 86.257812 373.484375 86.261719 373.464844 C 86.277344 373.394531 86.292969 373.324219 86.300781 373.253906 Z M 218.546875 251.269531 C 213.242188 244.8125 199.28125 244.453125 191.65625 244.285156 C 169.820312 243.800781 148.050781 252.027344 130.953125 265.386719 C 111.777344 280.367188 97.773438 301.242188 86.210938 322.378906 C 85.664062 323.097656 85.828125 323.933594 86.324219 324.519531 C 86.34375 324.539062 86.363281 324.566406 86.382812 324.585938 C 86.429688 324.636719 86.476562 324.683594 86.53125 324.730469 C 86.574219 324.769531 86.617188 324.804688 86.660156 324.84375 C 86.699219 324.867188 86.734375 324.894531 86.769531 324.917969 C 86.839844 324.964844 86.90625 325.007812 86.980469 325.042969 C 86.996094 325.050781 87.011719 325.058594 87.027344 325.066406 C 87.722656 325.40625 88.578125 325.359375 89.136719 324.65625 C 123.421875 292.625 182.769531 311.375 212.664062 272.390625 C 216.394531 267.527344 223.523438 257.328125 218.546875 251.269531 Z M 89.179688 296.835938 C 89.136719 296.765625 89.101562 296.695312 89.050781 296.628906 C 60.285156 259.648438 84.582031 202.132812 48.503906 168.875 C 43.871094 164.609375 34.355469 156.484375 27.828125 161.152344 C 21.191406 165.890625 19.582031 178.980469 18.640625 186.34375 C 15.910156 207.691406 21.742188 230.027344 33.046875 248.191406 C 46.199219 269.316406 66.113281 285.570312 86.527344 299.339844 C 86.992188 299.867188 87.554688 299.976562 88.066406 299.8125 C 89.230469 299.566406 89.96875 297.941406 89.179688 296.835938 Z M 299.527344 155.988281 C 297.476562 152.199219 292.929688 149.617188 289.425781 147.449219 C 284.320312 144.285156 278.855469 141.703125 273.214844 139.648438 C 250.988281 131.558594 225.746094 131.992188 203.308594 139.046875 C 175.507812 147.78125 151.414062 166.050781 130.160156 185.496094 C 129.554688 185.832031 129.324219 186.359375 129.363281 186.898438 C 129.347656 188.109375 130.761719 189.214844 132.019531 188.652344 C 132.074219 188.632812 132.125 188.625 132.179688 188.601562 C 181.601562 166.199219 240.855469 210.074219 287.433594 176.675781 C 293.1875 172.550781 303.980469 164.210938 299.527344 155.988281 Z M 119.347656 211.84375 C 108.179688 158.679688 163.675781 110.410156 141.242188 57.628906 C 138.324219 50.761719 132.15625 37.96875 122.691406 41.695312 C 113.875 45.171875 106.410156 56.421875 101.59375 64.152344 C 89.402344 83.714844 84.445312 107.714844 86.230469 130.578125 C 88.53125 159.976562 101.3125 187.855469 115.863281 213.085938 C 116.085938 213.71875 116.566406 214.046875 117.109375 214.128906 C 117.136719 214.132812 117.160156 214.136719 117.183594 214.140625 C 117.226562 214.144531 117.265625 214.148438 117.308594 214.152344 C 118.480469 214.246094 119.730469 213.148438 119.347656 211.847656 C 119.347656 211.84375 119.347656 211.84375 119.347656 211.84375 Z M 324.417969 34.421875 C 291.542969 87.53125 214.023438 74.753906 176.363281 122.109375 C 175.695312 122.949219 174.804688 122.871094 174.15625 122.367188 C 173.40625 122.046875 172.898438 121.308594 173.273438 120.3125 C 184.269531 90.9375 198.449219 61.460938 220.421875 38.636719 C 239.515625 18.804688 265.339844 4.523438 292.78125 0.890625 C 299.984375 -0.0625 307.269531 -0.28125 314.511719 0.371094 C 319.238281 0.800781 325.234375 1.078125 329.09375 4.242188 C 337.589844 11.203125 328.800781 27.339844 324.417969 34.421875" style="fill: rgb(135, 191, 159);"/></g><g clip-path="url(#__id133_stfv70hh4o)" id="__id135_stfv70hh4o"><path d="M 235.027344 63.933594 C 212.167969 82.5625 191.371094 103.617188 173.109375 126.773438 C 160.976562 142.15625 150.089844 158.382812 140.484375 175.273438 C 163.496094 162.570312 191.667969 158.566406 217.261719 157.335938 C 222.027344 157.105469 222 164.503906 217.261719 164.730469 C 188.664062 166.109375 156.828125 171.097656 133.257812 188.6875 C 133.230469 188.710938 133.199219 188.71875 133.167969 188.742188 C 113.921875 225.875 100.683594 265.886719 93.828125 307.019531 C 109.203125 288.667969 130.054688 275.316406 152.699219 267.53125 C 157.21875 265.980469 159.140625 273.125 154.667969 274.664062 C 129.921875 283.171875 107.140625 298.945312 92.578125 320.921875 C 92.300781 321.339844 91.976562 321.65625 91.628906 321.910156 C 88.773438 344.148438 87.777344 366.648438 88.695312 389.136719 C 89.210938 388.59375 89.71875 388.046875 90.210938 387.5 C 95.257812 381.871094 100.523438 376.59375 106.351562 371.761719 C 118.789062 361.445312 132.585938 352.988281 146.367188 344.621094 C 150.453125 342.140625 154.164062 348.539062 150.101562 351.007812 C 137.464844 358.679688 124.746094 366.375 113.203125 375.660156 C 107.488281 380.261719 102.101562 385.273438 97.195312 390.734375 C 94.964844 393.21875 90.941406 396.25 89.667969 399.289062 C 89.558594 399.550781 89.429688 399.78125 89.285156 400 C 90.402344 416.324219 92.527344 432.621094 95.695312 448.789062 C 96.605469 453.445312 89.476562 455.421875 88.5625 450.753906 C 83.554688 425.199219 80.929688 399.214844 80.839844 373.195312 C 70.761719 372.324219 61.707031 366.015625 53.871094 360.019531 C 45.839844 353.867188 38.933594 346.667969 32.832031 338.617188 C 29.953125 334.820312 36.378906 331.140625 39.21875 334.886719 C 44.304688 341.597656 50.195312 347.699219 56.769531 352.964844 C 63.367188 358.242188 72.203125 365.039062 80.886719 365.804688 C 80.972656 360.058594 81.171875 354.3125 81.507812 348.570312 C 82.464844 332.253906 84.457031 316.078125 87.375 300.113281 C 86.503906 300.148438 85.59375 299.871094 84.777344 299.121094 C 66.570312 282.398438 47.59375 260.488281 45.019531 234.964844 C 44.539062 230.222656 51.941406 230.273438 52.414062 234.964844 C 54.710938 257.71875 72.566406 277.699219 88.789062 292.769531 C 94.308594 265.484375 102.628906 238.898438 113.53125 213.4375 C 113.449219 213.246094 113.371094 213.050781 113.316406 212.828125 C 106.828125 186.140625 101.835938 157.796875 103.027344 130.242188 C 103.230469 125.492188 110.628906 125.484375 110.421875 130.242188 C 109.382812 154.300781 113.132812 178.832031 118.464844 202.386719 C 144.082031 147.148438 181.976562 97.675781 229.796875 58.703125 C 233.457031 55.722656 238.71875 60.925781 235.027344 63.933594" style="fill: rgb(178, 154, 133);"/></g></g></svg>